<svg width="243" height="99" viewBox="0 0 243 99" fill="none" xmlns="http://www.w3.org/2000/svg">
<g clip-path="url(#clip0_103_2)">
<path d="M0 0H103V99H0V0ZM4 4V95H99V4H4Z" fill="#F8B500"/>
<path d="M54.1654 84.5798C50.4106 84.5587 46.7309 83.5256 43.5138 81.5893L18.8503 66.099C18.2754 65.8099 17.7955 65.3616 17.4679 64.8077C17.1403 64.2537 16.9787 63.6173 17.0023 62.9741C16.9947 62.2782 17.1828 61.5942 17.5452 61.0001C17.9076 60.406 18.4297 59.9257 19.0519 59.614C20.0432 59.1099 22.0593 58.6395 25.1842 60.37C25.108 59.8035 25.1775 59.2269 25.3862 58.6948C25.595 58.1627 25.936 57.6926 26.3771 57.3291C27.9059 56.1194 30.426 56.4218 32.9293 58.1523L33.4334 58.4883C33.5149 58.1206 33.6701 57.7733 33.8895 57.4672C34.109 57.1611 34.3882 56.9027 34.7102 56.7074C36.0375 55.9178 38.0704 56.2706 40.9097 57.7491L50.2005 62.7389C50.2918 62.7865 50.3727 62.852 50.4383 62.9313C50.504 63.0106 50.5531 63.1023 50.5829 63.2009C50.6126 63.2995 50.6224 63.4031 50.6115 63.5055C50.6006 63.6079 50.5694 63.7072 50.5197 63.7973C50.4198 63.9826 50.2514 64.1214 50.0505 64.1842C49.8496 64.247 49.6321 64.2287 49.4444 64.1334L40.1704 59.1939C38.0032 58.0347 36.3063 57.6483 35.5166 58.1187C35.0798 58.3875 34.8614 58.9923 34.8446 59.9332C34.843 60.0751 34.8031 60.2141 34.7292 60.3353C34.6553 60.4565 34.5501 60.5556 34.4246 60.622C34.3032 60.6962 34.1637 60.7355 34.0214 60.7355C33.8791 60.7355 33.7396 60.6962 33.6182 60.622L32.1229 59.4964C29.8212 57.9171 28.1747 58.0347 27.4523 58.6059C26.7299 59.1771 26.5451 60.3868 27.0827 61.8317C27.142 61.9896 27.1492 62.1624 27.1032 62.3247C27.0572 62.487 26.9605 62.6303 26.8271 62.7336C26.6937 62.837 26.5307 62.8948 26.3621 62.8988C26.1934 62.9028 26.0279 62.8526 25.8898 62.7557C23.4033 60.958 21.152 60.3364 19.7408 61.0756C19.3828 61.2515 19.0813 61.5241 18.8705 61.8627C18.6596 62.2012 18.5479 62.5921 18.5479 62.9909C18.5521 63.3414 18.6532 63.6838 18.84 63.9804C19.0268 64.2769 19.2921 64.5159 19.6064 64.671L44.3202 80.2788C49.3604 83.471 55.9463 83.3534 57.4584 82.4461C57.5302 82.4296 57.6049 82.4296 57.6768 82.4461C60.7513 81.6397 63.2042 80.8669 65.3715 80.178C70.9326 78.3972 74.6119 77.2379 81.6346 78.1283C81.8429 78.1576 82.0314 78.2671 82.1601 78.4335C82.2888 78.5998 82.3474 78.8099 82.3234 79.0188C82.2902 79.2252 82.1797 79.4113 82.0144 79.5392C81.849 79.6671 81.6411 79.7273 81.433 79.7076C74.7127 78.8508 71.3526 79.9092 65.8587 81.6901C63.6914 82.3621 61.2385 83.1518 58.164 83.9414C56.8972 84.4561 55.5295 84.6745 54.1654 84.5798V84.5798Z" fill="#F8B500"/>
<path d="M51.9309 73.0041C48.4292 72.9243 44.9877 72.0754 41.8505 70.5176C41.0154 70.3076 40.2846 69.8021 39.7935 69.0948C39.3024 68.3875 39.0841 67.5261 39.1792 66.6703C39.2998 65.9462 39.6542 65.2816 40.1881 64.778C40.7221 64.2744 41.4063 63.9594 42.1361 63.8813C44.2026 63.7637 45.8659 63.7301 47.2939 63.7133C52.7374 63.5957 54.367 63.5789 60.9361 58.6731L67.0684 54.1369C68.5132 53.0617 72.0246 52.7257 75.1831 54.0025L86.5068 58.6059C86.7003 58.6843 86.8549 58.8361 86.9368 59.0282C87.0186 59.2202 87.0211 59.4369 86.9436 59.6308C86.9067 59.728 86.8505 59.8168 86.7784 59.8918C86.7064 59.9668 86.6199 60.0265 86.5242 60.0673C86.4285 60.1081 86.3255 60.1291 86.2215 60.1292C86.1175 60.1292 86.0145 60.1083 85.9188 60.0676L74.5951 55.4642C73.554 55.0205 72.4339 54.7919 71.3022 54.7919C70.1704 54.7919 69.0504 55.0205 68.0092 55.4642L61.877 60.0172C54.9047 65.175 52.8382 65.2254 47.3275 65.3262C45.9163 65.3262 44.2698 65.3262 42.2873 65.4942C41.9151 65.5358 41.5674 65.7006 41.2996 65.9623C41.0317 66.2241 40.859 66.5679 40.8089 66.9391C40.6577 67.8463 41.2961 68.6191 42.4889 69.1064C51.9141 73.4073 57.7272 71.1225 65.5227 67.1239C65.7099 67.0281 65.9274 67.0105 66.1275 67.0751C66.3275 67.1397 66.4938 67.2812 66.5896 67.4683C66.6854 67.6554 66.7029 67.873 66.6383 68.073C66.5737 68.2731 66.4323 68.4393 66.2452 68.5351C61.1041 71.1393 56.8368 73.0041 51.9309 73.0041Z" fill="#F8B500"/>
<path d="M51.9813 25.3237C51.7719 25.3237 51.5711 25.2405 51.423 25.0924C51.2749 24.9443 51.1917 24.7435 51.1917 24.5341V20.6027C51.1917 20.3933 51.2749 20.1924 51.423 20.0443C51.5711 19.8962 51.7719 19.813 51.9813 19.813C52.1908 19.813 52.3916 19.8962 52.5397 20.0443C52.6878 20.1924 52.771 20.3933 52.771 20.6027V24.5341C52.771 24.7435 52.6878 24.9443 52.5397 25.0924C52.3916 25.2405 52.1908 25.3237 51.9813 25.3237V25.3237Z" fill="#F8B500"/>
<path d="M51.9813 46.3414C51.7719 46.3414 51.5711 46.2582 51.423 46.1101C51.2749 45.962 51.1917 45.7612 51.1917 45.5518V41.6372C51.1917 41.4278 51.2749 41.2269 51.423 41.0788C51.5711 40.9307 51.7719 40.8475 51.9813 40.8475C52.1908 40.8475 52.3916 40.9307 52.5397 41.0788C52.6878 41.2269 52.771 41.4278 52.771 41.6372V45.5518C52.771 45.7612 52.6878 45.962 52.5397 46.1101C52.3916 46.2582 52.1908 46.3414 51.9813 46.3414V46.3414Z" fill="#F8B500"/>
<path d="M51.9813 52.1376C48.2092 52.1376 44.5218 51.0188 41.3855 48.9228C38.2493 46.8267 35.8052 43.8476 34.3625 40.3623C32.9197 36.8769 32.543 33.0419 33.2802 29.3425C34.0173 25.6431 35.8351 22.2453 38.5036 19.5792C41.1721 16.913 44.5714 15.0982 48.2715 14.3644C51.9716 13.6305 55.8062 14.0105 59.2903 15.4564C62.7744 16.9022 65.7514 19.3489 67.8447 22.487C69.9379 25.625 71.0535 29.3135 71.0502 33.0856C71.0413 38.1387 69.0288 42.982 65.4542 46.5535C61.8795 50.125 57.0344 52.1332 51.9813 52.1376V52.1376ZM51.9813 15.5961C48.5222 15.5961 45.1408 16.6218 42.2647 18.5436C39.3885 20.4654 37.1469 23.1969 35.8231 26.3927C34.4994 29.5885 34.153 33.105 34.8279 36.4977C35.5027 39.8903 37.1684 43.0066 39.6144 45.4526C42.0603 47.8986 45.1767 49.5643 48.5693 50.2391C51.9619 50.914 55.4785 50.5676 58.6743 49.2439C61.8701 47.9201 64.6016 45.6784 66.5234 42.8023C68.4452 39.9262 69.4709 36.5447 69.4709 33.0856C69.4709 28.4471 67.6283 23.9986 64.3483 20.7186C61.0684 17.4387 56.6199 15.5961 51.9813 15.5961V15.5961Z" fill="#F8B500"/>
<path d="M52.771 41.8052C52.305 41.8018 51.8395 41.7738 51.3765 41.7212C49.7004 41.4716 48.0558 41.0436 46.4707 40.4443L46.1515 40.3435C46.0517 40.3113 45.9592 40.2595 45.8796 40.1911C45.8001 40.1227 45.7349 40.0391 45.688 39.9453C45.641 39.8514 45.6133 39.7492 45.6063 39.6445C45.5994 39.5398 45.6134 39.4347 45.6475 39.3355C45.7164 39.1365 45.8605 38.9724 46.0488 38.8782C46.2372 38.784 46.455 38.7672 46.6555 38.8315L46.9747 38.9491C48.4533 39.5055 49.9843 39.9108 51.5445 40.1587C54.199 40.4611 56.3327 39.8059 57.2736 38.4787C57.5184 38.1345 57.6623 37.7289 57.689 37.3074C57.7157 36.8859 57.6242 36.4653 57.4248 36.093C56.7023 34.7153 54.7031 33.9089 52.0822 33.9089H51.9981C48.638 33.9089 46.1515 32.8 45.1435 30.8847C44.8114 30.2661 44.6591 29.567 44.7036 28.8663C44.7481 28.1656 44.9878 27.4914 45.3955 26.9198C46.6723 24.9877 49.4108 24.0973 52.687 24.4333C54.3756 24.709 56.0309 25.1594 57.6264 25.7773L57.912 25.8781C58.0112 25.9085 58.1033 25.9586 58.1828 26.0254C58.2622 26.0922 58.3274 26.1742 58.3744 26.2668C58.4215 26.3593 58.4494 26.4603 58.4565 26.5638C58.4637 26.6674 58.4499 26.7713 58.416 26.8694C58.3856 26.9686 58.3355 27.0607 58.2688 27.1401C58.202 27.2196 58.1199 27.2848 58.0274 27.3318C57.9349 27.3788 57.8339 27.4068 57.7303 27.4139C57.6268 27.4211 57.5229 27.4073 57.4248 27.3734L57.1224 27.2726C55.626 26.718 54.0784 26.3128 52.5022 26.0629C49.8309 25.7605 47.6468 26.4158 46.6891 27.743C46.4487 28.0795 46.3071 28.4764 46.2804 28.8891C46.2537 29.3017 46.3429 29.7137 46.5379 30.0783C47.2603 31.4392 49.2932 32.2624 51.9981 32.2624C51.9981 32.2624 51.9981 32.2624 52.0822 32.2624C55.3415 32.2624 57.7944 33.3544 58.8024 35.2865C59.1375 35.9124 59.2929 36.6187 59.2514 37.3274C59.2098 38.0361 58.9731 38.7195 58.5672 39.3019C57.8734 40.1543 56.9843 40.8268 55.9753 41.2626C54.9663 41.6984 53.8672 41.8845 52.771 41.8052V41.8052Z" fill="#F8B500"/>
<path d="M123 58.3312V22H141.072C144.845 22 147.78 22.9316 149.829 24.7947C151.832 26.6578 152.857 29.1265 152.857 32.2473C152.857 35.7872 151.366 38.3956 148.432 40.0259C151.366 41.7027 152.857 44.544 152.857 48.0839C152.857 51.2047 151.832 53.6733 149.829 55.5365C147.78 57.4462 144.845 58.3312 141.072 58.3312H123V58.3312ZM132.316 36.579H140.001C142.283 36.579 143.448 35.5543 143.448 33.598C143.448 32.713 143.215 31.9678 142.703 31.4088C142.19 30.8965 141.492 30.6636 140.513 30.6636H132.316V36.579V36.579ZM132.316 49.6676H140.513C141.492 49.6676 142.19 49.4347 142.703 48.9223C143.215 48.3634 143.448 47.6647 143.448 46.7331C143.448 44.7769 142.283 43.7521 140.001 43.7521H132.316V49.6676ZM158.756 58.3312V22H168.118L178.598 46.8729L189.125 22H198.487V58.3312H189.218V41.2369L181.673 58.3312H175.571L168.025 41.2369V58.3312H158.756V58.3312ZM204.386 58.3312L219.105 22H228.328L243 58.3312H232.846L229.911 50.2265H217.568L214.541 58.3312H204.386V58.3312ZM220.456 42.6808L226.93 42.6342L223.717 33.9241L220.456 42.6808Z" fill="#F7F7F7"/>
<path d="M123 77.16V68.1728H127.471C128.404 68.1728 129.13 68.4033 129.637 68.8642C130.132 69.325 130.386 69.9357 130.386 70.7077C130.386 71.5834 130.017 72.2286 129.291 72.6319C130.017 73.0467 130.386 73.7495 130.386 74.6252C130.386 75.3972 130.132 76.0078 129.637 76.4687C129.13 76.9411 128.404 77.16 127.471 77.16H123V77.16ZM125.304 71.7792H127.206C127.77 71.7792 128.058 71.5258 128.058 71.0418C128.058 70.8229 128.001 70.6386 127.874 70.5003C127.747 70.3735 127.574 70.3159 127.332 70.3159H125.304V71.7792V71.7792ZM125.304 75.0169H127.332C127.574 75.0169 127.747 74.9593 127.874 74.8326C128.001 74.6943 128.058 74.5215 128.058 74.291C128.058 73.8071 127.77 73.5536 127.206 73.5536H125.304V75.0169ZM131.845 77.16L135.486 68.1728H137.767L141.397 77.16H138.885L138.159 75.1552H135.106L134.357 77.16H131.845V77.16ZM135.82 73.2886L137.422 73.2771L136.627 71.1225L135.82 73.2886ZM142.856 77.16V68.1728H144.815L148.824 73.1965V68.1728H151.117V77.16H149.17L145.16 72.1479V77.16H142.856V77.16ZM157.347 77.3329C156.045 77.3329 154.927 76.872 153.994 75.9617C153.049 75.0515 152.577 73.9454 152.577 72.6664C152.577 71.3875 153.049 70.2814 153.994 69.3711C154.927 68.4609 156.045 68 157.347 68C158.66 68 159.789 68.4609 160.723 69.3711C161.426 70.0509 161.863 70.846 162.025 71.7331H159.617C159.501 71.4336 159.317 71.157 159.087 70.9266C158.614 70.4542 158.038 70.2238 157.347 70.2238C156.667 70.2238 156.091 70.4657 155.618 70.9381C155.146 71.4105 154.904 71.9866 154.904 72.6664C154.904 73.3462 155.146 73.9223 155.618 74.3947C156.091 74.8672 156.667 75.1091 157.347 75.1091C158.038 75.1091 158.614 74.8672 159.087 74.3947C159.409 74.0721 159.617 73.7149 159.72 73.2886H162.071C161.944 74.3141 161.506 75.2013 160.723 75.9617C159.789 76.872 158.66 77.3329 157.347 77.3329ZM168.3 77.3329C166.998 77.3329 165.881 76.872 164.947 75.9617C164.002 75.0515 163.53 73.9454 163.53 72.6664C163.53 71.3875 164.002 70.2814 164.947 69.3711C165.881 68.4609 166.998 68 168.3 68C169.614 68 170.743 68.4609 171.676 69.3711C172.609 70.2814 173.07 71.3875 173.07 72.6664C173.07 73.9454 172.609 75.0515 171.676 75.9617C170.743 76.872 169.614 77.3329 168.3 77.3329V77.3329ZM168.3 75.1091C168.991 75.1091 169.568 74.8672 170.04 74.3947C170.512 73.9223 170.743 73.3462 170.743 72.6664C170.743 71.9866 170.512 71.399 170.04 70.9266C169.568 70.4542 168.991 70.2238 168.3 70.2238C167.62 70.2238 167.044 70.4657 166.572 70.9381C166.099 71.4105 165.857 71.9866 165.857 72.6664C165.857 73.3462 166.099 73.9223 166.572 74.3947C167.044 74.8672 167.62 75.1091 168.3 75.1091ZM179.1 77.16V68.1728H181.416L184.008 74.3256L186.612 68.1728H188.928V77.16H186.635V72.9314L184.769 77.16H183.259L181.393 72.9314V77.16H179.1V77.16ZM190.387 77.16L194.028 68.1728H196.31L199.939 77.16H197.427L196.701 75.1552H193.648L192.899 77.16H190.387V77.16ZM194.362 73.2886L195.964 73.2771L195.169 71.1225L194.362 73.2886ZM201.398 77.16V68.1728H203.357L207.367 73.1965V68.1728H209.66V77.16H207.713L203.703 72.1479V77.16H201.398ZM214.944 77.3329C213.827 77.3329 212.916 77.0909 212.202 76.5955C211.488 76.1 211.131 75.4317 211.131 74.5676V74.4639L211.119 74.003H213.377V74.5215C213.377 74.7174 213.516 74.9017 213.781 75.0745C214.046 75.2474 214.414 75.3396 214.898 75.3396C215.302 75.3396 215.59 75.2819 215.774 75.1782C215.947 75.0745 216.039 74.9363 216.039 74.7865C216.039 74.6021 215.924 74.4408 215.705 74.3026C215.474 74.1643 215.071 74.003 214.507 73.8071C214.149 73.6804 213.85 73.5767 213.608 73.4845C213.366 73.3923 213.078 73.2541 212.744 73.0697C212.409 72.8969 212.133 72.701 211.937 72.5051C211.741 72.3093 211.568 72.0673 211.419 71.7677C211.269 71.4681 211.2 71.1455 211.2 70.7883C211.2 69.9472 211.522 69.2674 212.179 68.7605C212.836 68.2535 213.677 68 214.714 68C215.785 68 216.661 68.265 217.352 68.795C218.044 69.325 218.389 70.0279 218.389 70.9036V71.4681H216.143V70.9496C216.143 70.7077 216.027 70.4772 215.785 70.2814C215.543 70.0855 215.198 69.9933 214.76 69.9933C214.403 69.9933 214.126 70.0509 213.942 70.1661C213.758 70.2929 213.665 70.4312 213.665 70.604C213.665 70.7768 213.769 70.9151 213.976 71.0303C214.184 71.157 214.576 71.3184 215.152 71.5142L215.739 71.7216L216.362 71.9751C216.627 72.1019 216.845 72.2056 217.007 72.3093C217.168 72.413 217.352 72.5512 217.571 72.724C217.79 72.8969 217.952 73.0812 218.078 73.2541C218.194 73.4269 218.297 73.6458 218.389 73.8878C218.47 74.1297 218.516 74.3947 218.516 74.6598C218.516 75.5124 218.182 76.1691 217.525 76.63C216.869 77.1024 216.004 77.3329 214.944 77.3329V77.3329ZM219.975 77.16V68.1728H222.28V77.16H219.975ZM228.509 77.3329C227.207 77.3329 226.09 76.872 225.156 75.9617C224.212 75.0515 223.739 73.9454 223.739 72.6664C223.739 71.3875 224.212 70.2814 225.156 69.3711C226.09 68.4609 227.207 68 228.509 68C229.823 68 230.952 68.4609 231.885 69.3711C232.819 70.2814 233.279 71.3875 233.279 72.6664C233.279 73.9454 232.819 75.0515 231.885 75.9617C230.952 76.872 229.823 77.3329 228.509 77.3329ZM228.509 75.1091C229.201 75.1091 229.777 74.8672 230.249 74.3947C230.722 73.9223 230.952 73.3462 230.952 72.6664C230.952 71.9866 230.722 71.399 230.249 70.9266C229.777 70.4542 229.201 70.2238 228.509 70.2238C227.829 70.2238 227.253 70.4657 226.781 70.9381C226.309 71.4105 226.067 71.9866 226.067 72.6664C226.067 73.3462 226.309 73.9223 226.781 74.3947C227.253 74.8672 227.829 75.1091 228.509 75.1091ZM234.739 77.16V68.1728H236.697L240.707 73.1965V68.1728H243V77.16H241.053L237.043 72.1479V77.16H234.739Z" fill="#F7F7F7"/>
</g>
<defs>
<clipPath id="clip0_103_2">
<rect width="243" height="99" fill="white"/>
</clipPath>
</defs>
</svg>
